HIERARCHY
ROOT Hips
{
	OFFSET 0.000000 0.000000 0.000000
	CHANNELS 6 Xposition Yposition Zposition Zrotation Yrotation Xrotation 
	JOINT LHipJoint
	{
		OFFSET 0.000000 0.000000 0.000000
		CHANNELS 3 Zrotation Yrotation Xrotation
		JOINT LeftUpLeg
		{
			OFFSET 1.363060 -1.794630 0.839290
			CHANNELS 3 Zrotation Yrotation Xrotation
			JOINT LeftLeg
			{
				OFFSET 2.448110 -6.726130 0.000000
				CHANNELS 3 Zrotation Yrotation Xrotation
				JOINT LeftFoot
				{
					OFFSET 2.562200 -7.039590 0.000000
					CHANNELS 3 Zrotation Yrotation Xrotation
					JOINT LeftToeBase
					{
						OFFSET 0.157640 -0.433110 2.322550
						CHANNELS 3 Zrotation Yrotation Xrotation
						End Site
						{
							OFFSET 0.000000 0.000000 0.000000
						}
					}
				}
			}
		}
	}
	JOINT RHipJoint
	{
		OFFSET 0.000000 0.000000 0.000000
		CHANNELS 3 Zrotation Yrotation Xrotation
		JOINT RightUpLeg
		{
			OFFSET -1.305520 -1.794630 0.839290
			CHANNELS 3 Zrotation Yrotation Xrotation
			JOINT RightLeg
			{
				OFFSET -2.542530 -6.985550 0.000000
				CHANNELS 3 Zrotation Yrotation Xrotation
				JOINT RightFoot
				{
					OFFSET -2.568260 -7.056230 0.000000
					CHANNELS 3 Zrotation Yrotation Xrotation
					JOINT RightToeBase
					{
						OFFSET -0.164730 -0.452590 2.363150
						CHANNELS 3 Zrotation Yrotation Xrotation
						End Site
						{
							OFFSET 0.000000 0.000000 0.000000
						}
					}
				}
			}
		}
	}
	JOINT LowerBack
	{
		OFFSET 0.000000 0.000000 0.000000
		CHANNELS 3 Zrotation Yrotation Xrotation
		JOINT Spine
		{
			OFFSET 0.028270 2.035590 -0.193380
			CHANNELS 3 Zrotation Yrotation Xrotation
			JOINT Spine1
			{
				OFFSET 0.056720 2.048850 -0.042750
				CHANNELS 3 Zrotation Yrotation Xrotation
				JOINT Neck
				{
					OFFSET 0.000000 0.000000 0.000000
					CHANNELS 3 Zrotation Yrotation Xrotation
					JOINT Neck1
					{
						OFFSET -0.054170 1.746240 0.172020
						CHANNELS 3 Zrotation Yrotation Xrotation
						JOINT Head
						{
							OFFSET 0.104070 1.761360 -0.123970
							CHANNELS 3 Zrotation Yrotation Xrotation
							End Site
							{
								OFFSET 0.000000 0.000000 0.000000
							}
						}
					}
				}
				JOINT LeftShoulder
				{
					OFFSET 0.000000 0.000000 0.000000
					CHANNELS 3 Zrotation Yrotation Xrotation
					JOINT LeftArm
					{
						OFFSET 3.362410 1.200890 -0.311210
						CHANNELS 3 Zrotation Yrotation Xrotation
						JOINT LeftForeArm
						{
							OFFSET 4.983000 -0.000000 -0.000000
							CHANNELS 3 Zrotation Yrotation Xrotation
							JOINT LeftHand
							{
								OFFSET 3.483560 -0.000000 -0.000000
								CHANNELS 3 Zrotation Yrotation Xrotation
								JOINT LeftFingerBase
								{
									OFFSET 0.000000 0.000000 0.000000
									CHANNELS 3 Zrotation Yrotation Xrotation
									JOINT LeftHandIndex1
									{
										OFFSET 0.715260 -0.000000 -0.000000
										CHANNELS 3 Zrotation Yrotation Xrotation
										End Site
										{
											OFFSET 0.000000 0.000000 0.000000
										}
									}
								}
								JOINT LThumb
								{
									OFFSET 0.000000 0.000000 0.000000
									CHANNELS 3 Zrotation Yrotation Xrotation
									End Site
									{
										OFFSET 0.000000 0.000000 0.000000
									}
								}
							}
						}
					}
				}
				JOINT RightShoulder
				{
					OFFSET 0.000000 0.000000 0.000000
					CHANNELS 3 Zrotation Yrotation Xrotation
					JOINT RightArm
					{
						OFFSET -3.136600 1.374050 -0.404650
						CHANNELS 3 Zrotation Yrotation Xrotation
						JOINT RightForeArm
						{
							OFFSET -5.241900 -0.000000 -0.000000
							CHANNELS 3 Zrotation Yrotation Xrotation
							JOINT RightHand
							{
								OFFSET -3.444170 -0.000000 -0.000000
								CHANNELS 3 Zrotation Yrotation Xrotation
								JOINT RightFingerBase
								{
									OFFSET 0.000000 0.000000 0.000000
									CHANNELS 3 Zrotation Yrotation Xrotation
									JOINT RightHandIndex1
									{
										OFFSET -0.622530 -0.000000 -0.000000
										CHANNELS 3 Zrotation Yrotation Xrotation
										End Site
										{
											OFFSET 0.000000 0.000000 0.000000
										}
									}
								}
								JOINT RThumb
								{
									OFFSET 0.000000 0.000000 0.000000
									CHANNELS 3 Zrotation Yrotation Xrotation
									End Site
									{
										OFFSET 0.000000 0.000000 0.000000
									}
								}
							}
						}
					}
				}
			}
		}
	}
}
MOTION
Frames: 8
Frame Time: 0.008333
14.890774 15.909383 -4.342541 -7.896267 -34.099020 -3.664620 2.383761 -4.071549 -3.722769 -12.507519 -11.502221 -27.226972 9.509749 19.885824 60.678903 1.378979 -4.207629 -8.702464 0.314000 3.602300 9.960400 -4.289594 3.683731 -4.666429 9.305489 -28.219128 -19.274697 -18.463449 -20.315896 86.936119 0.596209 -9.080705 -7.626817 -0.345400 3.776300 -10.448000 6.062074 -1.306552 72.110069 -2.774731 1.077382 1.260332 -11.896684 1.758040 -8.954292 1.641936 14.014474 -20.701257 -10.615184 18.641672 8.919228 -4.484100 6.421900 14.772400 -9.039224 -4.930134 -0.220298 -48.588873 -24.845605 45.290934 53.302365 -52.419620 -29.730280 0.060581 0.035799 -24.690045 30.404863 -13.572674 -7.829800 -7.125000 0.000000 0.000000 1.998200 14.338100 -1.442000 12.135985 4.424681 0.822799 52.656185 22.374408 40.672089 -51.697713 50.178445 -25.975194 1.465789 0.511652 -22.851587 -19.311507 -22.490576 8.181400 7.125000 0.000000 0.000000 8.376400 -53.348100 -1.729400 
14.792525 15.952242 -4.286835 -7.851883 -33.373192 -3.636276 2.379492 -4.021736 -3.697274 -12.539339 -11.727707 -26.737349 9.412533 19.858612 60.385942 1.479035 -4.737449 -8.776177 0.352300 3.813400 10.552300 -4.251906 3.537067 -4.642406 9.979145 -26.264086 -20.772804 -18.320541 -20.356428 86.505880 0.488487 -8.334678 -8.743022 -0.430900 4.212500 -11.675200 5.676517 -1.079214 72.126204 -2.734738 1.080233 1.208762 -11.642292 1.747824 -9.113329 1.813187 14.114207 -20.445920 -10.658818 18.675034 8.693729 -4.530500 6.478900 14.622100 -9.023392 -4.938576 -0.205812 -48.717262 -24.754189 44.942756 53.409355 -52.443748 -29.835831 0.070789 0.026096 -24.824050 29.858883 -13.576370 -7.653900 -7.125000 0.000000 0.000000 1.625900 14.430900 -1.169900 12.128332 4.421174 0.831156 52.637388 22.711556 40.891674 -52.324885 50.355303 -26.381411 1.443088 0.502629 -22.761021 -18.845762 -22.106004 7.850300 7.125000 0.000000 0.000000 8.736700 -52.879000 -1.704100 
14.689011 15.979094 -4.235236 -7.675512 -32.704790 -3.576596 2.377934 -3.974120 -3.690318 -12.596602 -11.787545 -26.497887 9.344667 19.845063 60.183240 1.566640 -5.236061 -8.775118 0.367200 3.892400 10.774100 -4.215100 3.399415 -4.600291 10.534963 -24.290131 -22.448730 -18.036880 -20.381791 85.670541 0.361470 -7.489317 -9.827378 -0.507100 4.564900 -12.671700 5.249557 -0.777828 71.971862 -2.678364 1.152324 1.189691 -11.319577 1.769106 -9.134030 1.764333 14.013863 -20.585102 -10.582187 18.546261 8.693824 -4.527400 6.419100 14.640500 -8.988843 -4.930003 -0.202969 -49.021745 -24.706504 44.712518 53.754526 -52.548678 -30.117840 0.079278 0.016660 -24.877117 29.345416 -13.384376 -7.386000 -7.125000 0.000000 0.000000 1.295100 14.736600 -0.923300 12.131897 4.427027 0.826167 52.543453 23.070485 40.948198 -52.876255 50.492156 -26.746138 1.415407 0.508254 -22.656172 -18.169521 -21.798640 7.472000 7.125000 0.000000 0.000000 9.338200 -52.472400 -1.729700 
14.584759 16.000366 -4.186901 -7.564829 -32.003302 -3.388787 2.381598 -3.920402 -3.698967 -12.529595 -11.865378 -26.422538 9.300185 19.849296 60.051350 1.652230 -5.739166 -8.750934 0.390800 4.014400 11.117200 -4.205348 3.279620 -4.557964 11.204799 -22.237548 -24.168367 -17.595735 -20.413308 84.378424 0.275494 -7.133701 -10.972491 -0.499100 4.529000 -12.569800 4.709584 -0.437580 71.630744 -2.511974 1.274983 1.229719 -10.563238 1.777143 -8.943571 1.180366 13.893711 -20.958513 -10.394553 18.607501 8.686998 -4.326400 6.390700 14.653100 -8.922116 -4.907513 -0.194035 -49.604286 -24.721566 44.298377 54.420103 -52.756206 -30.672179 0.074574 0.014431 -24.999068 29.116666 -12.978576 -7.102700 -7.125000 0.000000 0.000000 1.181700 15.226000 -0.830000 12.155963 4.438551 0.798549 52.042332 23.585468 41.140569 -53.530767 50.653726 -27.218087 1.404679 0.524529 -22.688602 -18.106890 -21.841604 7.465400 7.125000 0.000000 0.000000 9.427800 -52.524800 -1.758700 
14.477559 16.021637 -4.140357 -7.565763 -31.152177 -3.120386 2.386512 -3.870242 -3.710613 -12.356575 -12.163370 -26.352883 9.271928 19.874138 59.972147 1.740744 -6.251040 -8.769578 0.401100 4.065900 11.262100 -4.227087 3.185738 -4.516173 11.942671 -20.276216 -25.726980 -16.998762 -20.433910 82.628776 0.181922 -6.847177 -12.262793 -0.529600 4.663400 -12.951000 4.151751 -0.214556 71.223635 -2.274476 1.307210 1.292696 -9.554109 1.716923 -8.709125 0.614027 13.901771 -21.383495 -10.390770 18.891468 8.633360 -4.179500 6.435400 14.721300 -8.834853 -4.899305 -0.163047 -50.300825 -24.649762 43.583294 55.066702 -52.956065 -31.253649 0.065082 0.024563 -25.171001 29.184514 -12.797834 -7.034500 -7.125000 0.000000 0.000000 1.246700 15.404000 -0.871000 12.205686 4.441577 0.751934 51.240643 24.078059 41.653714 -54.512113 50.921402 -27.935070 1.389056 0.550574 -22.994801 -18.235613 -21.892899 7.539900 7.125000 0.000000 0.000000 9.330800 -52.621900 -1.762600 
14.356143 16.039539 -4.099920 -7.815227 -30.463772 -2.712764 2.408301 -3.820774 -3.724186 -11.891022 -12.281045 -26.337920 9.276890 19.877574 59.961841 1.843557 -6.853277 -8.780373 0.382600 3.972200 10.998400 -4.274826 3.071858 -4.432170 12.973990 -17.967575 -27.156507 -16.274810 -20.472763 80.502871 0.075138 -6.463295 -13.407386 -0.616500 5.025100 -13.980300 3.853005 -0.011673 70.892584 -2.149519 1.419686 1.275313 -9.062613 1.725856 -8.709949 0.418390 13.903457 -21.600881 -10.320849 18.980963 8.614970 -4.098100 6.448400 14.758900 -8.786740 -4.891829 -0.151391 -50.630288 -24.412344 43.168546 55.561975 -53.107978 -31.706150 0.070933 0.025778 -25.364704 29.052403 -12.941022 -7.070700 -7.125000 0.000000 0.000000 1.139100 15.262400 -0.799200 12.222504 4.444565 0.732037 51.056674 24.339966 41.917528 -55.335023 51.147879 -28.543196 1.379013 0.550017 -22.916830 -18.199538 -21.876024 7.518200 7.125000 0.000000 0.000000 9.372800 -52.604200 -1.766600 
14.224302 16.062074 -4.064959 -8.239070 -30.145441 -2.219986 2.449074 -3.752721 -3.745688 -11.175223 -11.921718 -26.356240 9.322801 19.847215 60.032232 1.982672 -7.696860 -8.770228 0.390100 4.010500 11.106200 -4.353735 2.951543 -4.319024 14.211060 -15.071449 -28.335455 -15.426858 -20.520418 78.012398 -0.016434 -6.045695 -14.073070 -0.784500 5.654500 -15.785100 3.517528 0.434661 70.560901 -2.068722 1.770142 1.233858 -8.762283 1.854393 -8.755225 0.278024 13.821160 -21.758268 -10.048683 18.891349 8.647627 -3.964000 6.414900 14.756400 -8.739183 -4.870970 -0.160843 -51.003766 -24.461186 42.987779 55.558783 -53.098300 -31.700765 0.092171 0.031121 -25.205297 28.546119 -13.201385 -7.053700 -7.125000 0.000000 0.000000 0.754600 15.042500 -0.532900 12.217226 4.456132 0.737493 51.263169 24.682335 41.890215 -55.681780 51.208033 -28.760150 1.360543 0.539221 -22.423097 -17.554965 -21.652908 7.183500 7.125000 0.000000 0.000000 9.962100 -52.280800 -1.800000 
14.110574 16.075237 -4.028208 -7.935166 -29.805720 -1.232035 2.483434 -3.738538 -3.837709 -10.894998 -11.889442 -27.357023 9.396658 19.928088 60.253016 2.084892 -8.359271 -8.777558 0.444500 4.277900 11.860000 -4.380813 2.841291 -4.155938 14.490440 -11.970670 -30.461029 -14.565303 -20.457449 75.469733 -0.140092 -4.880062 -14.016577 -0.967700 6.263100 -17.549800 2.913980 0.996186 68.879167 -2.006982 2.032338 1.355716 -8.353442 1.963718 -8.378529 0.156133 13.591772 -22.007055 -9.796358 18.639785 8.778505 -3.909900 6.305100 14.817200 -8.679756 -4.821226 -0.153648 -51.804790 -24.901847 43.034912 55.187913 -52.995744 -31.348073 0.109756 0.057190 -24.690941 28.236265 -13.420030 -7.079800 -7.125000 0.000000 0.000000 0.503100 14.817000 -0.357700 12.227478 4.447395 0.738907 51.180559 24.970758 41.669049 -55.994137 51.265307 -28.979256 1.322760 0.537574 -22.166527 -16.830985 -21.175164 6.744900 7.125000 0.000000 0.000000 10.549500 -51.700200 -1.757000 
